<?xml version="1.0" encoding="UTF-8" standalone="no"?>
<!-- Created with Inkscape (http://www.inkscape.org/) -->

<svg
   xmlns:dc="http://purl.org/dc/elements/1.1/"
   xmlns:cc="http://creativecommons.org/ns#"
   xmlns:rdf="http://www.w3.org/1999/02/22-rdf-syntax-ns#"
   xmlns:svg="http://www.w3.org/2000/svg"
   xmlns="http://www.w3.org/2000/svg"
   xmlns:sodipodi="http://sodipodi.sourceforge.net/DTD/sodipodi-0.dtd"
   xmlns:inkscape="http://www.inkscape.org/namespaces/inkscape"
   width="800"
   height="600"
   id="svg2"
   version="1.1"
   inkscape:version="0.47pre1 r21720"
   sodipodi:docname="speed_meter.svg"
   inkscape:output_extension="org.inkscape.output.svg.inkscape"
   inkscape:export-filename="/home/chudy/racer/resources/speed_meter_arrow.png"
   inkscape:export-xdpi="180"
   inkscape:export-ydpi="180">
  <defs
     id="defs4">
    <inkscape:perspective
       sodipodi:type="inkscape:persp3d"
       inkscape:vp_x="0 : 526.18109 : 1"
       inkscape:vp_y="0 : 1000 : 0"
       inkscape:vp_z="744.09448 : 526.18109 : 1"
       inkscape:persp3d-origin="372.04724 : 350.78739 : 1"
       id="perspective10" />
    <inkscape:perspective
       id="perspective2864"
       inkscape:persp3d-origin="0.5 : 0.33333333 : 1"
       inkscape:vp_z="1 : 0.5 : 1"
       inkscape:vp_y="0 : 1000 : 0"
       inkscape:vp_x="0 : 0.5 : 1"
       sodipodi:type="inkscape:persp3d" />
    <inkscape:perspective
       id="perspective2864-8"
       inkscape:persp3d-origin="0.5 : 0.33333333 : 1"
       inkscape:vp_z="1 : 0.5 : 1"
       inkscape:vp_y="0 : 1000 : 0"
       inkscape:vp_x="0 : 0.5 : 1"
       sodipodi:type="inkscape:persp3d" />
    <inkscape:perspective
       id="perspective2896"
       inkscape:persp3d-origin="0.5 : 0.33333333 : 1"
       inkscape:vp_z="1 : 0.5 : 1"
       inkscape:vp_y="0 : 1000 : 0"
       inkscape:vp_x="0 : 0.5 : 1"
       sodipodi:type="inkscape:persp3d" />
    <inkscape:perspective
       id="perspective2919"
       inkscape:persp3d-origin="0.5 : 0.33333333 : 1"
       inkscape:vp_z="1 : 0.5 : 1"
       inkscape:vp_y="0 : 1000 : 0"
       inkscape:vp_x="0 : 0.5 : 1"
       sodipodi:type="inkscape:persp3d" />
    <inkscape:perspective
       id="perspective2983"
       inkscape:persp3d-origin="0.5 : 0.33333333 : 1"
       inkscape:vp_z="1 : 0.5 : 1"
       inkscape:vp_y="0 : 1000 : 0"
       inkscape:vp_x="0 : 0.5 : 1"
       sodipodi:type="inkscape:persp3d" />
    <inkscape:perspective
       id="perspective3037"
       inkscape:persp3d-origin="0.5 : 0.33333333 : 1"
       inkscape:vp_z="1 : 0.5 : 1"
       inkscape:vp_y="0 : 1000 : 0"
       inkscape:vp_x="0 : 0.5 : 1"
       sodipodi:type="inkscape:persp3d" />
    <inkscape:perspective
       id="perspective3095"
       inkscape:persp3d-origin="0.5 : 0.33333333 : 1"
       inkscape:vp_z="1 : 0.5 : 1"
       inkscape:vp_y="0 : 1000 : 0"
       inkscape:vp_x="0 : 0.5 : 1"
       sodipodi:type="inkscape:persp3d" />
    <inkscape:perspective
       id="perspective3118"
       inkscape:persp3d-origin="0.5 : 0.33333333 : 1"
       inkscape:vp_z="1 : 0.5 : 1"
       inkscape:vp_y="0 : 1000 : 0"
       inkscape:vp_x="0 : 0.5 : 1"
       sodipodi:type="inkscape:persp3d" />
    <inkscape:perspective
       id="perspective3141"
       inkscape:persp3d-origin="0.5 : 0.33333333 : 1"
       inkscape:vp_z="1 : 0.5 : 1"
       inkscape:vp_y="0 : 1000 : 0"
       inkscape:vp_x="0 : 0.5 : 1"
       sodipodi:type="inkscape:persp3d" />
    <inkscape:perspective
       id="perspective3631"
       inkscape:persp3d-origin="0.5 : 0.33333333 : 1"
       inkscape:vp_z="1 : 0.5 : 1"
       inkscape:vp_y="0 : 1000 : 0"
       inkscape:vp_x="0 : 0.5 : 1"
       sodipodi:type="inkscape:persp3d" />
    <inkscape:perspective
       id="perspective3631-7"
       inkscape:persp3d-origin="0.5 : 0.33333333 : 1"
       inkscape:vp_z="1 : 0.5 : 1"
       inkscape:vp_y="0 : 1000 : 0"
       inkscape:vp_x="0 : 0.5 : 1"
       sodipodi:type="inkscape:persp3d" />
    <inkscape:perspective
       id="perspective3631-8"
       inkscape:persp3d-origin="0.5 : 0.33333333 : 1"
       inkscape:vp_z="1 : 0.5 : 1"
       inkscape:vp_y="0 : 1000 : 0"
       inkscape:vp_x="0 : 0.5 : 1"
       sodipodi:type="inkscape:persp3d" />
    <inkscape:perspective
       id="perspective3702"
       inkscape:persp3d-origin="0.5 : 0.33333333 : 1"
       inkscape:vp_z="1 : 0.5 : 1"
       inkscape:vp_y="0 : 1000 : 0"
       inkscape:vp_x="0 : 0.5 : 1"
       sodipodi:type="inkscape:persp3d" />
  </defs>
  <sodipodi:namedview
     id="base"
     pagecolor="#ffffff"
     bordercolor="#666666"
     borderopacity="1.0"
     inkscape:pageopacity="0"
     inkscape:pageshadow="2"
     inkscape:zoom="1"
     inkscape:cx="152.12134"
     inkscape:cy="345.03592"
     inkscape:document-units="px"
     inkscape:current-layer="layer6"
     showgrid="false"
     showguides="true"
     inkscape:guide-bbox="true"
     inkscape:snap-global="true"
     inkscape:window-width="1748"
     inkscape:window-height="1057"
     inkscape:window-x="65"
     inkscape:window-y="42"
     inkscape:window-maximized="0">
    <sodipodi:guide
       orientation="1,0"
       position="400,462.64987"
       id="guide2820" />
    <sodipodi:guide
       orientation="0,1"
       position="-94.954339,300"
       id="guide2822" />
    <sodipodi:guide
       orientation="1,0"
       position="600,354.56354"
       id="guide2826" />
    <sodipodi:guide
       orientation="0,1"
       position="-81.822356,100"
       id="guide2828" />
  </sodipodi:namedview>
  <metadata
     id="metadata7">
    <rdf:RDF>
      <cc:Work
         rdf:about="">
        <dc:format>image/svg+xml</dc:format>
        <dc:type
           rdf:resource="http://purl.org/dc/dcmitype/StillImage" />
        <dc:title></dc:title>
      </cc:Work>
    </rdf:RDF>
  </metadata>
  <g
     inkscape:label="background"
     inkscape:groupmode="layer"
     id="layer1"
     transform="translate(0,-452.36218)"
     style="opacity:0.6;display:inline">
    <path
       sodipodi:type="arc"
       style="fill:#000000"
       id="path2824"
       sodipodi:cx="215.16249"
       sodipodi:cy="217.15219"
       sodipodi:rx="153.54318"
       sodipodi:ry="153.54318"
       d="m 368.70567,217.15219 a 153.54318,153.54318 0 1 1 -307.086362,0 153.54318,153.54318 0 1 1 307.086362,0 z"
       transform="matrix(1.3025652,0,0,1.3025652,119.73682,469.50729)" />
  </g>
  <g
     inkscape:groupmode="layer"
     id="layer2"
     inkscape:label="big lines"
     style="display:inline">
    <path
       style="fill:#f2f2f2"
       d="m 336.3125,110.34375 c -3.18139,1.06779 -6.32979,2.21635 -9.4375,3.4375 L 339.5,149.6875 c 3.35292,-1.35067 6.75905,-2.59031 10.21875,-3.71875 l -13.40625,-35.625 z m 127.375,0 -13.40625,35.625 c 3.4597,1.12844 6.86583,2.36808 10.21875,3.71875 l 12.625,-35.90625 c -3.10771,-1.22115 -6.25611,-2.36971 -9.4375,-3.4375 z M 229.34375,195.6875 c -1.74174,2.84391 -3.46126,5.72088 -5.0625,8.65625 l 32.75,19.40625 c 1.71292,-3.20512 3.55114,-6.33437 5.46875,-9.40625 L 229.34375,195.6875 z m 341.3125,0 L 537.5,214.34375 c 1.91504,3.06776 3.7266,6.20561 5.4375,9.40625 l 32.75,-19.40625 c -1.59901,-2.93075 -3.29217,-5.81668 -5.03125,-8.65625 z m -10.25,127.03125 c -0.50797,3.61729 -1.13223,7.21349 -1.875,10.75 l 37.53125,6.1875 c 0.65865,-3.27459 1.22218,-6.57591 1.71875,-9.90625 l -37.375,-7.03125 z M 239.625,322.75 l -37.40625,7.03125 c 0.49555,3.32003 1.0621,6.61039 1.71875,9.875 l 37.53125,-6.1875 C 240.72837,329.94364 240.1321,326.35538 239.625,322.75 z m 52.125,97.78125 -24.09375,29.375 c 2.50728,2.2152 5.07064,4.37977 7.6875,6.46875 l 24.75,-28.84375 c -2.85992,-2.24307 -5.64315,-4.57337 -8.34375,-7 z m 216.5,0 c -2.7006,2.42663 -5.48383,4.75693 -8.34375,7 l 24.75,28.84375 c 2.61686,-2.08898 5.18022,-4.25355 7.6875,-6.46875 L 508.25,420.53125 z"
       id="path2832" />
  </g>
  <g
     inkscape:groupmode="layer"
     id="layer3"
     inkscape:label="thin lines"
     style="opacity:0.9197861;display:inline">
    <path
       style="fill:#ececec"
       d="m 400,100 c -0.75313,0 -1.49883,0.0229 -2.25,0.0312 l -0.0937,18 C 398.43913,118.02138 399.21472,118 400,118 c 0.76434,0 1.51914,0.022 2.28125,0.0312 l -0.0937,-18 C 401.45709,100.02345 400.73221,100 400,100 z m -11.75,0.34375 c -1.48356,0.0861 -2.96279,0.19428 -4.4375,0.3125 l 1.15625,17.96875 c 1.54053,-0.12602 3.07385,-0.22509 4.625,-0.3125 L 388.25,100.34375 z m 23.4375,0 -1.34375,17.96875 c 1.55124,0.0869 3.08438,0.18701 4.625,0.3125 l 1.15625,-17.96875 c -1.47477,-0.11777 -2.95389,-0.2269 -4.4375,-0.3125 z m -37.34375,1.28125 c -1.46936,0.1882 -2.94705,0.40509 -4.40625,0.625 l 2.40625,17.84375 c 1.52645,-0.2327 3.05508,-0.43047 4.59375,-0.625 L 374.34375,101.625 z m 51.25,0 L 423,119.4375 c 1.53985,0.19412 3.06613,0.4239 4.59375,0.65625 L 430,102.25 c -1.45935,-0.21947 -2.93675,-0.43725 -4.40625,-0.625 z m 13.8125,2.25 -3.84375,17.59375 c 1.52153,0.30135 3.02363,0.62973 4.53125,0.96875 l 3.65625,-17.625 c -1.4469,-0.32295 -2.88521,-0.64609 -4.34375,-0.9375 z m -78.8125,0.0312 c -1.46664,0.29308 -2.92013,0.58128 -4.375,0.90625 l 3.65625,17.625 c 1.50755,-0.33928 3.00979,-0.66715 4.53125,-0.96875 l -3.8125,-17.5625 z m 92.375,3.1875 -5.0625,17.28125 c 1.49779,0.40763 2.98659,0.83659 4.46875,1.28125 l 4.875,-17.3125 c -1.42109,-0.4239 -2.8471,-0.85704 -4.28125,-1.25 z m -106,0.0312 c -1.43132,0.39272 -2.86295,0.79522 -4.28125,1.21875 l 4.875,17.34375 c 1.48188,-0.44519 2.97123,-0.87308 4.46875,-1.28125 l -5.0625,-17.28125 z m 119.34375,4.125 -6.25,16.90625 c 1.45379,0.50815 2.90706,1.01876 4.34375,1.5625 l 6.0625,-16.9375 c -1.37992,-0.51959 -2.76201,-1.04149 -4.15625,-1.53125 z m -132.6875,0.0312 c -1.39416,0.49028 -2.77642,1.01114 -4.15625,1.53125 l 6.0625,16.9375 c 1.43952,-0.54544 2.88705,-1.08404 4.34375,-1.59375 l -6.25,-16.875 z m 145.65625,5.0625 -7.40625,16.4064 c 1.42523,0.61327 2.84385,1.22664 4.25,1.875 l 7.25,-16.46875 c -1.35357,-0.62162 -2.72411,-1.22042 -4.09375,-1.8125 z m -158.625,0.0312 c -1.36944,0.59256 -2.74038,1.1904 -4.09375,1.8125 l 7.25,16.46875 c 1.40591,-0.64891 2.825,-1.26117 4.25,-1.875 L 320.65625,116.375 z m 171.25,5.9375 -8.53125,15.875 c 1.3724,0.70868 2.74197,1.4452 4.09375,2.1875 l 8.375,-15.96875 c -1.30413,-0.7133 -2.61594,-1.40886 -3.9375,-2.09375 z m -183.875,0.0312 c -1.32125,0.68531 -2.63369,1.38003 -3.9375,2.09375 l 8.40625,15.969 c 1.34366,-0.73825 2.69845,-1.48247 4.0625,-2.1875 l -8.53125,-15.875 z m 196.0625,6.84375 -9.625,15.21875 c 1.31482,0.80002 2.61359,1.63662 3.90625,2.46875 l 9.5,-15.34375 c -1.24981,-0.80188 -2.51263,-1.56914 -3.78125,-2.34375 z m -208.21875,0.0312 c -1.26856,0.77495 -2.53151,1.54153 -3.78125,2.34375 l 9.46875,15.34375 c 1.29976,-0.8374 2.61532,-1.66383 3.9375,-2.46875 l -9.625,-15.21875 z m 219.84375,7.65625 -10.65625,14.5 c 1.25288,0.88746 2.52082,1.80067 3.75,2.71875 l 10.5,-14.625 c -1.18982,-0.88587 -2.38377,-1.73392 -3.59375,-2.59375 z m -231.5,0.0312 c -1.21477,0.86387 -2.39932,1.73488 -3.59375,2.625 l 10.5,14.59375 c 1.22855,-0.91832 2.49775,-1.83102 3.75,-2.71875 l -10.65625,-14.5 z m 242.59375,8.4375 -11.625,13.71875 c 1.20082,0.98248 2.35629,1.98772 3.53125,3 l 11.5,-13.84375 c -1.1255,-0.96653 -2.25921,-1.93329 -3.40625,-2.875 z M 273.125,145.375 c -1.14655,0.94197 -2.28124,1.90823 -3.40625,2.875 l 11.5,13.84375 c 1.17578,-1.01376 2.36079,-1.98484 3.5625,-2.96875 L 273.125,145.375 z m 264.1875,9.1875 -12.59375,12.90625 c 1.12557,1.05969 2.24546,2.13099 3.34375,3.21875 l 12.4375,-13 c -1.05937,-1.04596 -2.1051,-2.10274 -3.1875,-3.125 z m -274.65625,0.0312 c -1.0822,1.02252 -2.12834,2.07879 -3.1875,3.125 l 12.4375,13 c 1.09799,-1.08798 2.21848,-2.15883 3.34375,-3.21875 L 262.65625,154.5937 z m 284.4375,9.9375 -13.4375,11.96875 c 1.04966,1.1354 2.10419,2.27558 3.125,3.4375 l 13.3125,-12.09375 c -0.98451,-1.11728 -1.99114,-2.21759 -3,-3.3125 z M 252.875,164.5625 c -1.0086,1.09512 -2.01575,2.19502 -3,3.3125 l 13.3125,12.09375 c 1.02046,-1.16209 2.07569,-2.30192 3.125,-3.4375 L 252.875,164.5625 z m 303.34375,10.5625 -14.25,11 c 0.96149,1.19725 1.91221,2.40319 2.84375,3.625 l 14.125,-11.15625 c -0.89232,-1.16627 -1.80154,-2.3229 -2.71875,-3.46875 z M 243.75,175.15625 c -0.92604,1.15739 -1.84935,2.32179 -2.75,3.5 l 14.125,11.15625 c 0.93982,-1.23389 1.90466,-2.44738 2.875,-3.65625 l -14.25,-11 z m 320.78125,11.125 -14.96875,10 c 0.88436,1.27267 1.74133,2.54771 2.59375,3.84375 l 14.875,-10.15625 c -0.8184,-1.23984 -1.65494,-2.46717 -2.5,-3.6875 z m -329.09375,0.0625 c -0.84476,1.22079 -1.68191,2.4472 -2.5,3.6875 l 14.875,10.15625 c 0.85192,-1.29636 1.70988,-2.57075 2.59375,-3.84375 l -14.96875,-10 z m 336.625,11.6875 -15.625,8.9375 c 0.79565,1.33508 1.58159,2.67436 2.34375,4.03125 l 15.5625,-9.09375 c -0.73559,-1.30468 -1.51743,-2.5887 -2.28125,-3.875 z m -344.15625,0.0625 c -0.76079,1.28221 -1.51726,2.57454 -2.25,3.875 l 15.5625,9.09375 c 0.76364,-1.36048 1.51519,-2.72393 2.3125,-4.0625 l -15.625,-8.90625 z m 350.90625,12.21875 -16.25,7.8125 c 0.69753,1.38202 1.39945,2.7543 2.0625,4.15625 l 16.125,-7.96875 c -0.63575,-1.33876 -1.27309,-2.6778 -1.9375,-4 z m -357.625,0.0312 c -0.66624,1.3263 -1.33135,2.65704 -1.96875,4 l 16.15625,7.96875 c 0.66087,-1.39792 1.33609,-2.77815 2.03125,-4.15625 L 221.1875,210.3437 z M 584.625,223 l -16.75,6.65625 c 0.59615,1.42114 1.18915,2.84205 1.75,4.28125 l 16.6875,-6.84375 C 585.77248,225.71461 585.19456,224.36403 584.625,223 z m -369.25,0.0312 c -0.57312,1.37311 -1.14432,2.73658 -1.6875,4.125 l 16.65625,6.8125 c 0.56042,-1.43906 1.15428,-2.86024 1.75,-4.28125 l -16.71875,-6.6562 z m -4.9375,13.03125 c -0.47732,1.41585 -0.92871,2.85141 -1.375,4.28125 L 226.15625,246 c 0.46172,-1.48821 0.93888,-2.96591 1.4375,-4.4375 l -17.15625,-5.5 z m 379.125,0 -17.15625,5.46875 c 0.49566,1.46208 0.97826,2.92776 1.4375,4.40625 l 17.09375,-5.65625 c -0.44079,-1.41073 -0.904,-2.82164 -1.375,-4.21875 z m 4,13.34375 -17.5,4.28125 c 0.39048,1.4887 0.77155,2.99667 1.125,4.5 L 594.625,253.75 c -0.34424,-1.45364 -0.68672,-2.90257 -1.0625,-4.34375 z m -387.125,0.0625 c -0.37541,1.44154 -0.71864,2.88974 -1.0625,4.34375 l 17.4375,4.4375 c 0.35294,-1.50342 0.73503,-3.0112 1.125,-4.5 l -17.5,-4.28125 z m 390.15625,13.59375 -17.75,3.03125 c 0.28502,1.51269 0.53392,3.03684 0.78125,4.5625 l 17.71875,-3.21875 c -0.23973,-1.46417 -0.47866,-2.92171 -0.75,-4.375 z m -393.1875,0.0625 c -0.26904,1.44341 -0.51215,2.88962 -0.75,4.34375 l 17.6875,3.21875 c 0.24567,-1.51732 0.52956,-3.02675 0.8125,-4.53125 l -17.75,-3.03125 z m 395.25,13.71875 -17.90625,1.7813 c 0.18053,1.54281 0.32706,3.1019 0.46875,4.65625 L 599.125,281.3125 c -0.13851,-1.49352 -0.29758,-2.98493 -0.46875,-4.46875 z m -397.3125,0.0625 c -0.16954,1.47367 -0.33142,2.95426 -0.46875,4.4375 l 17.90625,1.96875 c 0.1405,-1.54418 0.28992,-3.09221 0.46875,-4.625 l -17.90625,-1.78125 z m 398.4375,13.875 -18,0.53125 c 0.0719,1.53173 0.12241,3.08359 0.15625,4.625 l 18,-0.71875 c -0.0349,-1.48529 -0.0891,-2.96039 -0.15625,-4.4375 z m -399.5625,0.0625 c -0.0667,1.47712 -0.12181,2.9522 -0.15625,4.4375 l 18,0.71875 c 0.0333,-1.54157 0.0848,-3.0931 0.15625,-4.625 l -18,-0.53125 z M 581.9375,304 c -0.0333,1.54157 -0.0848,3.0931 -0.15625,4.625 l 18,0.53125 c 0.0666,-1.47712 0.12181,-2.9522 0.15625,-4.4375 l -18,-0.71875 z m -363.875,0.0625 -18,0.71875 c 0.0349,1.48529 0.0891,2.96039 0.15625,4.4375 l 18,-0.53125 c -0.0719,-1.53173 -0.12241,-3.08359 -0.15625,-4.625 z m 363.15625,12.625 c -0.1405,1.54418 -0.28992,3.09221 -0.46875,4.625 l 17.90625,1.78125 c 0.16954,-1.47367 0.33142,-2.95426 0.46875,-4.4375 l -17.90625,-1.96875 z m -362.4375,0.0312 -17.90625,1.96875 c 0.13851,1.49352 0.29758,2.98493 0.46875,4.46875 L 219.25,321.375 c -0.18053,-1.54281 -0.32706,-3.1019 -0.46875,-4.65625 z m 360.875,12.59375 c -0.24567,1.51732 -0.52956,3.02675 -0.8125,4.53125 l 17.75,3.03125 c 0.26904,-1.44341 0.51215,-2.88962 0.75,-4.34375 l -17.6875,-3.21875 z m -359.28125,0.0312 -17.71875,3.21875 c 0.23973,1.46417 0.47866,2.92171 0.75,4.375 l 17.75,-3.03125 c -0.28502,-1.51269 -0.53392,-3.03684 -0.78125,-4.5625 z M 577.1875,341.75 c -0.35294,1.50342 -0.73503,3.0112 -1.125,4.5 l 17.5,4.28125 c 0.37541,-1.44154 0.71864,-2.88974 1.0625,-4.34375 L 577.1875,341.75 z m -354.375,0.0625 -17.4375,4.4375 c 0.34424,1.45364 0.68672,2.90257 1.0625,4.34375 l 17.5,-4.28125 c -0.39048,-1.4887 -0.77155,-2.99667 -1.125,-4.5 z M 573.84375,354 c -0.46172,1.48821 -0.93888,2.96591 -1.4375,4.4375 l 17.15625,5.5 c 0.47732,-1.41585 0.92871,-2.85141 1.375,-4.28125 L 573.84375,354 z m -347.6875,0.0625 -17.09375,5.65625 c 0.44079,1.41073 0.904,2.82164 1.375,4.21875 l 17.15625,-5.46875 c -0.49566,-1.46208 -0.97826,-2.92776 -1.4375,-4.40625 z m 343.5,11.96875 c -0.56042,1.43906 -1.15428,2.86024 -1.75,4.28125 l 16.71875,6.65625 c 0.57312,-1.37311 1.14432,-2.73658 1.6875,-4.125 l -16.65625,-6.8125 z m -339.28125,0.0312 -16.6875,6.84375 c 0.54002,1.37914 1.11794,2.72972 1.6875,4.09375 l 16.75,-6.65625 c -0.59615,-1.42114 -1.18915,-2.84205 -1.75,-4.28125 z m 334.25,11.625 c -0.66087,1.39792 -1.33609,2.77815 -2.03125,4.15625 l 16.21875,7.8125 c 0.66624,-1.3263 1.33135,-2.65704 1.96875,-4 L 564.625,377.6875 z m -329.25,0.0312 -16.125,7.96875 c 0.63575,1.33876 1.27309,2.6778 1.9375,4 l 16.25,-7.8125 c -0.69753,-1.38202 -1.39945,-2.7543 -2.0625,-4.15625 z m 323.40625,11.21875 c -0.76364,1.36048 -1.51519,2.72393 -2.3125,4.0625 l 15.625,8.90625 c 0.76079,-1.28221 1.51726,-2.57454 2.25,-3.875 l -15.5625,-9.09375 z M 241.21875,389 l -15.5625,9.09375 c 0.73559,1.30468 1.51743,2.5887 2.28125,3.875 l 15.625,-8.9375 c -0.79565,-1.33508 -1.58159,-2.67436 -2.34375,-4.03125 z m 310.96875,10.8125 c -0.85192,1.29636 -1.70988,2.57075 -2.59375,3.84375 l 14.96875,10 c 0.84476,-1.22079 1.68191,-2.4472 2.5,-3.6875 l -14.875,-10.15625 z m -304.34375,0.0625 -14.875,10.15625 c 0.8184,1.23984 1.65494,2.46717 2.5,3.6875 l 14.96875,-10 c -0.88436,-1.27267 -1.74133,-2.54771 -2.59375,-3.84375 z M 544.875,410.1875 c -0.93982,1.23389 -1.90466,2.44738 -2.875,3.65625 l 14.25,11 c 0.92604,-1.15739 1.84935,-2.32179 2.75,-3.5 L 544.875,410.1875 z m -289.6875,0.0625 -14.125,11.15625 c 0.89232,1.16627 1.80154,2.3229 2.71875,3.46875 l 14.25,-11 c -0.96149,-1.19725 -1.91221,-2.40319 -2.84375,-3.625 z m 281.625,9.78125 c -1.02046,1.16209 -2.07569,2.30192 -3.125,3.4375 l 13.4375,11.96875 c 1.0086,-1.09512 2.01575,-2.19502 3,-3.3125 l -13.3125,-12.09375 z m -273.59375,0.0312 -13.3125,12.09375 c 0.98451,1.11728 1.99114,2.21759 3,3.3125 L 266.34375,423.5 c -1.04966,-1.1354 -2.10419,-2.27558 -3.125,-3.4375 z m 264.875,9.21875 c -1.09799,1.08798 -2.21848,2.15883 -3.34375,3.21875 l 12.59375,12.90625 c 1.0822,-1.02252 2.12834,-2.07879 3.1875,-3.125 l -12.4375,-13 z m -256.15625,0.0312 -12.4375,13 c 1.05937,1.04596 2.1051,2.10274 3.1875,3.125 l 12.59375,-12.90625 c -1.12557,-1.05969 -2.24546,-2.13099 -3.34375,-3.21875 z m 246.84375,8.59375 c -1.17578,1.01376 -2.36079,1.98484 -3.5625,2.96875 l 11.65625,13.75 c 1.14655,-0.94197 2.28124,-1.90823 3.40625,-2.875 l -11.5,-13.84375 z m -237.5,0.0312 -11.5,13.84375 c 1.1255,0.96653 2.25921,1.93329 3.40625,2.875 l 11.625,-13.71875 c -1.20082,-0.98248 -2.35629,-1.98772 -3.53125,-3 z"
       id="path2832-6" />
  </g>
  <g
     inkscape:groupmode="layer"
     id="layer4"
     inkscape:label="5th lines"
     style="display:inline">
    <path
       style="fill:#ececec;display:inline"
       d="m 400,100 c -1.20284,0 -2.39596,0.0101 -3.59375,0.0312 l -0.21875,29.0313 C 397.45765,129.03466 398.72317,129 400,129 c 1.2559,0 2.50056,0.0356 3.75,0.0625 l -0.21875,-29.03125 C 402.3542,100.01083 401.18193,100 400,100 z m -65.09375,10.8125 c -2.25077,0.77418 -4.47386,1.61731 -6.6875,2.46875 l 9.71875,27.34375 c 2.35425,-0.91759 4.72142,-1.77881 7.125,-2.59375 L 334.90625,110.8125 z m 130.15625,0 -10.15625,27.21875 c 2.39467,0.81145 4.74802,1.68041 7.09375,2.59375 l 9.71875,-27.375 c -2.20151,-0.84589 -4.41803,-1.66801 -6.65625,-2.4375 z m -190.875,33.71875 c -1.84827,1.49769 -3.67581,3.03233 -5.46875,4.59375 L 287.1875,171.5 c 1.90074,-1.67011 3.83845,-3.28931 5.8125,-4.875 l -18.8125,-22.09375 z m 251.59375,0 -18.8125,22.0625 c 1.96292,1.57593 3.89076,3.18436 5.78125,4.84375 l 18.46875,-22.34375 c -1.78265,-1.5514 -3.6002,-3.07407 -5.4375,-4.5625 z M 571.375,196.875 546.15625,211.1875 c 1.31534,2.15958 2.59159,4.34141 3.8125,6.5625 l 25,-14.6875 c -1.1573,-2.08456 -2.36496,-4.14949 -3.59375,-6.1875 z m -342.8125,0.0625 c -1.2252,2.03402 -2.40849,4.10715 -3.5625,6.1875 l 25,14.6875 c 1.22,-2.22157 2.49805,-4.40241 3.8125,-6.5625 l -25.25,-14.3125 z m 367.75,64.78125 -28.59375,4.8125 c 0.48933,2.46625 0.93049,4.96556 1.3125,7.46875 l 28.53125,-5.25 c -0.3704,-2.3612 -0.79774,-4.69822 -1.25,-7.03125 z m -392.65625,0.0937 c -0.44885,2.32152 -0.85095,4.65061 -1.21875,7 l 28.53125,5.25 c 0.37929,-2.49138 0.79566,-4.98268 1.28125,-7.4375 l -28.59375,-4.8125 z m 365.375,64.125 c -0.37929,2.49138 -0.79566,4.98268 -1.28125,7.4375 l 28.59375,4.8125 c 0.44885,-2.32152 0.85095,-4.65061 1.21875,-7 l -28.53125,-5.25 z M 230.96875,326 202.4375,331.25 c 0.3704,2.3612 0.79774,4.69822 1.25,7.03125 l 28.59375,-4.8125 C 231.79192,331.0025 231.35076,328.50319 230.96875,326 z M 550,382.1875 c -1.22,2.22157 -2.49805,4.40241 -3.8125,6.5625 l 25.25,14.3125 c 1.2252,-2.03402 2.40849,-4.10715 3.5625,-6.1875 l -25,-14.6875 z m -299.96875,0.0625 -25,14.6875 c 1.1573,2.08456 2.36496,4.14949 3.59375,6.1875 l 25.21875,-14.3125 c -1.31534,-2.15958 -2.59159,-4.34141 -3.8125,-6.5625 z M 512.8125,428.5 c -1.90074,1.67011 -3.83845,3.28931 -5.8125,4.875 l 18.8125,22.09375 c 1.84827,-1.49769 3.67581,-3.03233 5.46875,-4.59375 L 512.8125,428.5 z m -225.5625,0.0625 -18.46875,22.34375 c 1.78265,1.5514 3.6002,3.07407 5.4375,4.5625 l 18.8125,-22.0625 c -1.96292,-1.57593 -3.89076,-3.18436 -5.78125,-4.84375 z"
       id="path2832-6-6" />
  </g>
  <g
     inkscape:groupmode="layer"
     id="layer5"
     inkscape:label="labels"
     style="display:inline">
    <text
       xml:space="preserve"
       style="font-size:28px;font-style:normal;font-variant:normal;font-weight:normal;font-stretch:normal;fill:#ffffff;fill-opacity:1;stroke:none;font-family:DejaVu Sans;-inkscape-font-specification:DejaVu Sans"
       x="301.5"
       y="429.25"
       id="text3157"><tspan
         sodipodi:role="line"
         id="tspan3159"
         x="301.5"
         y="429.25">0</tspan></text>
    <text
       xml:space="preserve"
       style="font-size:28px;font-style:normal;font-weight:normal;fill:#ffffff;fill-opacity:1;stroke:none;font-family:Bitstream Vera Sans"
       x="245.0125"
       y="335.18851"
       id="text3161"><tspan
         sodipodi:role="line"
         id="tspan3163"
         x="245.0125"
         y="335.18851">40</tspan></text>
    <text
       xml:space="preserve"
       style="font-size:28px;font-style:normal;font-weight:normal;fill:#ffffff;fill-opacity:1;stroke:none;font-family:Bitstream Vera Sans"
       x="263.75082"
       y="229.82961"
       id="text3165"><tspan
         sodipodi:role="line"
         id="tspan3167"
         x="263.75082"
         y="229.82961">80</tspan></text>
    <text
       xml:space="preserve"
       style="font-size:28px;font-style:normal;font-variant:normal;font-weight:normal;font-stretch:normal;fill:#ffffff;fill-opacity:1;stroke:none;font-family:DejaVu Sans;-inkscape-font-specification:DejaVu Sans"
       x="326.32977"
       y="173.26105"
       id="text3169"><tspan
         sodipodi:role="line"
         id="tspan3171"
         x="326.32977"
         y="173.26105">120</tspan></text>
    <text
       xml:space="preserve"
       style="font-size:28px;font-style:normal;font-weight:normal;fill:#ffffff;fill-opacity:1;stroke:none;font-family:Bitstream Vera Sans"
       x="421.78922"
       y="173.26105"
       id="text3173"><tspan
         sodipodi:role="line"
         id="tspan3175"
         x="421.78922"
         y="173.26105">160</tspan></text>
    <text
       xml:space="preserve"
       style="font-size:28px;font-style:normal;font-weight:normal;fill:#ffffff;fill-opacity:1;stroke:none;font-family:Bitstream Vera Sans"
       x="484.72168"
       y="239.37552"
       id="text3177"><tspan
         sodipodi:role="line"
         id="tspan3179"
         x="484.72168"
         y="239.37552">200</tspan></text>
    <text
       xml:space="preserve"
       style="font-size:28px;font-style:normal;font-weight:normal;fill:#ffffff;fill-opacity:1;stroke:none;font-family:Bitstream Vera Sans"
       x="502.39935"
       y="332.71365"
       id="text3181"><tspan
         sodipodi:role="line"
         id="tspan3183"
         x="502.39935"
         y="332.71365">240</tspan></text>
    <text
       xml:space="preserve"
       style="font-size:28px;font-style:normal;font-weight:normal;fill:#ffffff;fill-opacity:1;stroke:none;font-family:Bitstream Vera Sans"
       x="449.01282"
       y="422.86972"
       id="text3185"><tspan
         sodipodi:role="line"
         id="tspan3187"
         x="449.01282"
         y="422.86972">280</tspan></text>
    <text
       xml:space="preserve"
       style="font-size:28px;font-style:italic;font-weight:normal;fill:#ffffff;fill-opacity:1;stroke:none;font-family:Bitstream Vera Sans;-inkscape-font-specification:Andale Mono Italic"
       x="363.09933"
       y="442.31522"
       id="text3679"><tspan
         sodipodi:role="line"
         id="tspan3681"
         x="363.09933"
         y="442.31522">km/h</tspan></text>
  </g>
  <g
     inkscape:groupmode="layer"
     id="layer6"
     inkscape:label="arrow"
     style="display:inline">
    <path
       sodipodi:type="arc"
       style="fill:#000000;fill-opacity:1"
       id="path3684"
       sodipodi:cx="400"
       sodipodi:cy="300"
       sodipodi:rx="7.8986149"
       sodipodi:ry="7.8986149"
       d="m 407.89861,300 a 7.8986149,7.8986149 0 1 1 -15.79722,0 7.8986149,7.8986149 0 1 1 15.79722,0 z"
       transform="matrix(1.8057059,0,0,1.8057059,-322.28237,-241.71178)" />
    <path
       style="fill:#c10000;fill-opacity:1;stroke:none;stroke-width:1px;marker-start:none;display:inline"
       d="m 392.31249,342.4375 14.90625,0 L 400,118.50001 392.31249,342.4375 z"
       id="path3692"
       sodipodi:nodetypes="cccc" />
  </g>
</svg>
